<?xml version="1.0" encoding="utf-8"?>
<!-- Generator: Adobe Illustrator 17.1.0, SVG Export Plug-In . SVG Version: 6.00 Build 0)  -->
<!DOCTYPE svg PUBLIC "-//W3C//DTD SVG 1.1//EN" "http://www.w3.org/Graphics/SVG/1.1/DTD/svg11.dtd">
<svg version="1.1" id="Layer_1" xmlns="http://www.w3.org/2000/svg" xmlns:xlink="http://www.w3.org/1999/xlink" x="0px" y="0px"
	 width="48px" height="48px" viewBox="0 0 48 48" enable-background="new 0 0 48 48" xml:space="preserve">
<path fill="#841414" d="M43.437,26.858l-0.539,0.806l-3.374,2.671l-2.093-3.123c0.335-0.783,0.611-1.577,0.824-2.378
	c0.069-0.03,0.139-0.059,0.208-0.092c2.413-1.161,3.634-4.072,3.334-7.261c0.979-0.818,1.237-2.51,0.545-4.06
	c-0.68-1.521-2.052-2.404-3.269-2.204c-2.163-2.411-5.17-3.39-7.637-2.204c-0.072,0.035-0.141,0.072-0.21,0.11
	c-0.518-0.236-1.054-0.441-1.606-0.618l-0.645-2.921l4.174-0.794l0.937,0.129l-0.032-0.967l-5.905,0.209l-0.75,0.834l0.098,2.99
	c-1.96-0.342-4.053-0.345-6.177,0.012l-0.54-0.978l3.772-2.018l0.933-0.16l-0.301-0.916l-5.591,1.98l-0.485,1.024l0.473,1.439
	c-1.748,0.454-3.499,1.15-5.197,2.104c-3.562,2.001-6.345,4.821-8.147,7.956l-0.578,0.093l-0.463-4.378l0.191-0.961l-0.932-0.037
	l-0.224,6.127l0.747,0.836l0.394,0.016c-1.883,4.204-2.046,8.791-0.035,12.657c0.002,0.005,0.004,0.009,0.007,0.014
	c1.618,3.101,4.379,5.238,7.691,6.307l0.084,1.022l4.519,3.95l0.601-0.74l-0.813-0.5l-2.81-3.3l0.011-0.009
	c4.229,0.89,9.139,0.167,13.672-2.379c0.973-0.547,1.885-1.158,2.737-1.816l0.891,1.677l1.056,0.317l5.173-2.962l-0.45-0.848
	l-0.741,0.609l-3.977,1.539l-0.489-1.567c1.547-1.426,2.837-3.027,3.838-4.726l2.547,2.573l1.099-0.015l4.121-4.393L43.437,26.858z
	 M11.261,22.945c-0.823,1.66-2.259,2.595-3.206,2.089c-0.948-0.506-1.049-2.262-0.225-3.922c0.823-1.66,2.259-2.594,3.206-2.089
	C11.983,19.53,12.084,21.286,11.261,22.945z M16.436,15.115c-1.625,1.11-3.464,1.186-4.108,0.171
	c-0.644-1.016,0.151-2.738,1.776-3.848c1.624-1.109,3.463-1.186,4.108-0.17C18.856,12.283,18.061,14.005,16.436,15.115z
	 M25.423,19.567c-2.206,0.778-4.279,0.071-4.632-1.578c-0.353-1.65,1.149-3.618,3.354-4.396c2.204-0.778,4.278-0.071,4.631,1.578
	C29.129,16.821,27.627,18.789,25.423,19.567z"/>
<g>
</g>
<g>
</g>
<g>
</g>
<g>
</g>
<g>
</g>
<g>
</g>
<g>
</g>
<g>
</g>
<g>
</g>
<g>
</g>
<g>
</g>
<g>
</g>
<g>
</g>
<g>
</g>
<g>
</g>
</svg>
