<?xml version="1.0" encoding="utf-8"?>
<!-- Generator: Adobe Illustrator 17.1.0, SVG Export Plug-In . SVG Version: 6.00 Build 0)  -->
<!DOCTYPE svg PUBLIC "-//W3C//DTD SVG 1.1//EN" "http://www.w3.org/Graphics/SVG/1.1/DTD/svg11.dtd">
<svg version="1.1" id="Layer_1" xmlns="http://www.w3.org/2000/svg" xmlns:xlink="http://www.w3.org/1999/xlink" x="0px" y="0px"
	 width="149.029px" height="50.66px" viewBox="0 0 149.029 50.66" enable-background="new 0 0 149.029 50.66" xml:space="preserve">
<g>
	<path fill="#EEEEEE" d="M12.982,19.125l8.101,8.438c3.64,3.774,5.459,7.547,5.459,11.32c0,3.516-1.418,6.357-4.254,8.525
		s-6.551,3.252-11.145,3.252c-4.781,0-7.734-0.48-8.859-1.441c-0.516-0.445-1.025-1.564-1.529-3.357C0.251,44.068,0,42.516,0,41.203
		c0-0.82,0.275-1.23,0.826-1.23c0.359,0,0.646,0.304,0.862,0.91c0.84,2.381,2.277,4.278,4.31,5.69
		c2.032,1.412,4.332,2.118,6.902,2.118c2.663,0,4.858-0.766,6.586-2.298c1.728-1.531,2.593-3.479,2.593-5.841
		c0-1.31-0.316-2.549-0.948-3.719c-0.631-1.169-1.777-2.654-3.438-4.455l-8-8.648c-2.363-2.554-3.983-4.729-4.86-6.521
		c-0.877-1.793-1.315-3.837-1.315-6.135c0-2.859,1.012-5.221,3.036-7.084c2.023-1.863,4.58-2.795,7.668-2.795
		c1.895,0,4.434,0.54,7.616,1.617c0.936,0.305,1.462,0.457,1.579,0.457c0.234-0.023,0.608-0.188,1.124-0.492
		c0.263-0.164,0.515-0.258,0.754-0.281c0.599-0.023,0.898,0.668,0.898,2.074v1.16l0.738,6.82c0.047,0.727-0.258,1.09-0.914,1.09
		c-0.562,0-0.984-0.541-1.266-1.623c-0.729-2.61-2.126-4.779-4.192-6.507c-2.067-1.728-4.31-2.593-6.729-2.593
		c-1.762,0-3.2,0.576-4.316,1.727C8.397,5.796,7.84,7.275,7.84,9.083C7.84,12.231,9.554,15.579,12.982,19.125z"/>
	<path fill="#EEEEEE" d="M39.797,25.805l-1.824,14.203c-0.073,0.656-0.109,1.359-0.109,2.109c0,1.125,0.282,2.062,0.848,2.812
		c0.564,0.75,1.271,1.125,2.119,1.125c1.507,0,3.072-0.867,4.697-2.602c0.431-0.469,0.802-0.703,1.113-0.703
		c0.383,0,0.575,0.187,0.575,0.56c0,1.283-1.087,2.747-3.261,4.392s-4.106,2.467-5.798,2.467c-1.339,0-2.42-0.62-3.243-1.86
		c-0.823-1.24-1.234-2.856-1.234-4.846c0-0.912,0.082-2.071,0.246-3.476l1.652-13.412c0.07-0.538,0.141-0.971,0.211-1.299
		c0.023-0.187,0.035-0.339,0.035-0.457c-0.023-0.515-0.422-0.772-1.195-0.772H32.66c-0.54,0-0.809-0.202-0.809-0.607
		c0-0.477,0.492-0.978,1.477-1.502c2.554-1.383,4.593-3.281,6.117-5.695c0.382-0.609,0.775-0.914,1.181-0.914
		c0.525,0,0.788,0.223,0.788,0.668c0,0.234-0.07,0.562-0.211,0.984c-0.047,0.164-0.164,0.61-0.352,1.336l-0.246,1.16l-0.211,0.914
		c-0.047,0.211-0.07,0.375-0.07,0.492c0,0.562,0.469,0.844,1.406,0.844h0.316l4.816-0.141c0.796,0,1.195,0.309,1.195,0.927
		c0,1.023-0.598,1.534-1.793,1.534L42.08,23.87h-0.49c-0.656,0-1.096,0.118-1.318,0.352C40.048,24.457,39.89,24.984,39.797,25.805z"
		/>
	<path fill="#EEEEEE" d="M70.922,35.508c-2.973,4.594-5.301,7.781-6.986,9.562c-1.265,1.312-2.686,2.461-4.266,3.445
		c-1.58,0.985-2.804,1.477-3.67,1.477c-0.749,0-1.358-0.393-1.826-1.18c-0.468-0.786-0.702-1.801-0.702-3.045
		c0-1.878,0.281-4.296,0.844-7.253l1.406-7.288c0.352-1.784,0.527-3.051,0.527-3.803c0-0.892-0.246-1.35-0.738-1.373
		c-0.445-0.023-0.984,0.299-1.617,0.967s-1.137,1.471-1.512,2.408c-0.352,0.797-0.727,1.195-1.125,1.195
		c-0.445,0-0.668-0.28-0.668-0.84c0-1.868,0.8-3.753,2.399-5.656s3.194-2.855,4.782-2.855c1.845,0,2.768,1.479,2.768,4.436
		c0,0.751-0.069,1.55-0.206,2.395L58.38,40.246c-0.046,0.398-0.126,0.985-0.24,1.76l-0.17,1.55
		c-0.046,0.375-0.069,0.716-0.069,1.021c0,0.985,0.35,1.479,1.05,1.479c0.77,0,1.942-0.788,3.518-2.365
		c1.575-1.576,3.179-3.577,4.812-6.002c2.963-4.336,5.099-9.012,6.405-14.027c0.236-0.867,0.484-1.429,0.745-1.688
		c0.26-0.258,0.709-0.387,1.348-0.387c1.253,0,1.88,0.481,1.88,1.443c0,0.258-0.035,0.552-0.105,0.88l-1.758,8.168
		c-1.148,5.281-1.723,9.236-1.723,11.864c0,1.15,0.469,1.726,1.406,1.726c1.383,0,2.766-1.301,4.148-3.902
		c0.305-0.586,0.633-0.879,0.984-0.879c0.469,0,0.703,0.257,0.703,0.771c0,1.705-1.075,3.55-3.227,5.534s-4.167,2.977-6.048,2.977
		c-1.599,0-2.397-1.23-2.397-3.691c0-1.852,0.213-4.066,0.639-6.645l0.355-2.004C70.709,37.43,70.804,36.656,70.922,35.508z"/>
	<path fill="#EEEEEE" d="M103.148,27.035l-2.049-2.145c-1.107-1.148-2.297-1.723-3.568-1.723c-2.474,0-4.535,1.323-6.184,3.967
		c-1.648,2.644-2.473,5.929-2.473,9.855c0,3.15,0.687,5.589,2.061,7.316c1.375,1.729,3.318,2.592,5.832,2.592
		c2.489,0,4.651-0.809,6.483-2.426l1.304-1.125c0.188-0.188,0.387-0.281,0.598-0.281c0.281-0.023,0.422,0.116,0.422,0.42
		c0,0.561-0.516,1.411-1.547,2.554c-2.648,2.916-6.023,4.374-10.125,4.374c-2.906,0-5.168-0.943-6.785-2.83
		s-2.426-4.529-2.426-7.928c0-4.828,1.5-9.128,4.5-12.902c3-3.773,6.41-5.66,10.23-5.66c1.898,0,3.562,0.42,4.992,1.259
		c1.43,0.84,2.145,1.808,2.145,2.903c0,0.653-0.209,1.224-0.626,1.713c-0.418,0.49-0.917,0.734-1.497,0.734
		C103.995,27.703,103.566,27.48,103.148,27.035z"/>
	<path fill="#EEEEEE" d="M115.46,39.538l-1.097,8.87l-0.035,0.387c-0.117,0.915-0.855,1.373-2.215,1.373
		c-1.242,0-1.863-0.363-1.863-1.089c0-0.281,0.012-0.504,0.035-0.668l5.273-42.964c0.117-0.96,0.176-1.616,0.176-1.968
		c0-0.772-0.633-1.159-1.898-1.159h-1.758c-0.938,0-1.395-0.228-1.371-0.684c0.023-0.527,0.481-0.803,1.376-0.828
		c2.729-0.141,4.67-0.339,5.823-0.598c0.657-0.14,1.211-0.21,1.658-0.21c0.376,0,0.588,0.27,0.635,0.808V1.23l-4.067,32.995
		c-0.023,0.165-0.047,0.316-0.07,0.457l-0.035,0.316c0,0.328,0.104,0.504,0.315,0.527c0.141,0.023,0.41-0.117,0.809-0.423
		l0.456-0.352l2.143-1.549c3.91-2.863,6.404-5.761,7.481-8.694c0.492-1.384,0.943-2.299,1.354-2.746
		c0.41-0.446,1.002-0.669,1.775-0.669c1.336,0,2.004,0.728,2.004,2.183c0,2.159-2.602,5.057-7.805,8.693
		c-1.102,0.774-1.664,1.268-1.688,1.479c0,0.142,0.105,0.341,0.316,0.599c0.609,0.752,1.207,1.655,1.793,2.712l3.938,6.973
		c0.586,1.033,1.16,1.55,1.723,1.55c0.492,0,1.084-0.299,1.775-0.896s1.248-1.283,1.67-2.057c0.469-0.914,0.879-1.359,1.23-1.336
		s0.527,0.27,0.527,0.738c0,1.57-0.735,3.369-2.206,5.396s-2.782,3.041-3.935,3.041c-1.083,0-2.071-0.786-2.965-2.358l-6.192-11.053
		c-0.374-0.68-0.712-1.021-1.015-1.021c-0.258,0-0.562,0.105-0.912,0.317l-1.334,0.739C116.208,37.379,115.6,38.295,115.46,39.538z"
		/>
	<path fill="#EEEEEE" d="M145.301,42.469c0.328-0.023,0.668,0.188,1.02,0.633l0.984,1.16c0.281,0.328,0.68,0.703,1.195,1.125
		c0.375,0.328,0.551,0.609,0.527,0.844s-0.246,0.516-0.668,0.844c-1.359,1.055-2.32,1.945-2.883,2.672
		c-0.352,0.445-0.668,0.668-0.949,0.668s-0.562-0.234-0.844-0.703c-0.539-0.867-1.195-1.641-1.969-2.32
		c-0.422-0.375-0.633-0.715-0.633-1.02c0-0.375,0.281-0.75,0.844-1.125c0.609-0.422,1.043-0.762,1.301-1.02l1.09-1.125
		C144.691,42.703,145.02,42.492,145.301,42.469z"/>
</g>
</svg>
